
<svg xmlns="http://www.w3.org/2000/svg" width="256" height="256" viewBox="0 0 24 24" fill="none">
  <rect width="24" height="24" rx="6" fill="#0b0b0f"/>
  <path d="M4 8a2 2 0 0 1 2-2h12a1 1 0 0 1 .8.4l1.8 2.4A2 2 0 0 1 21 10v6a2 2 0 0 1-2 2H5a1 1 0 0 1-1-1V8z" fill="#89f0c2" opacity=".18"/>
  <path d="M7 9h10M4 8v8a2 2 0 0 0 2 2h12a2 2 0 0 0 2-2v-6a2 2 0 0 0-.4-1.2L18.8 6.4A2 2 0 0 0 17.2 6H6a2 2 0 0 0-2 2zm5 6a4 4 0 1 0 8 0 4 4 0 0 0-8 0z" stroke="#89f0c2" stroke-width="1.5" stroke-linecap="round" stroke-linejoin="round"/>
</svg>
